<?xml version="1.0" encoding="UTF-8"?> <svg xmlns="http://www.w3.org/2000/svg" width="161" height="29" viewBox="0 0 161 29" fill="none"><path fill-rule="evenodd" clip-rule="evenodd" d="M0 3.09631V25.6985C0 27.1094 1.00393 28.1405 2.37772 28.1405H36.8018C38.1756 28.1405 39.1795 27.1094 39.1795 25.6985V3.09631C39.1795 1.68537 38.1756 0.654297 36.8018 0.654297H2.37772C1.00393 0.654297 0 1.68537 0 3.09631ZM35.3258 12.7169V23.6271C35.3258 24.0272 35.06 24.2139 34.6879 24.2139H30.7276C30.4087 24.2139 30.1429 24.0272 30.1429 23.6271V13.6505C30.1429 10.4495 28.4153 9.3558 26.608 9.3558C23.7109 9.3558 22.3554 11.6766 22.3554 13.0637V23.6271C22.3554 24.0272 22.1693 24.2139 21.7972 24.2139H17.837C17.4915 24.2139 17.2523 24.0272 17.2523 23.6271V13.6505C17.2523 10.4495 15.5246 9.3558 13.6907 9.3558C10.7671 9.3558 9.38498 12.2367 9.38498 13.1437V23.6271C9.38498 24.0272 9.19893 24.2139 8.87998 24.2139H4.8666C4.46792 24.2139 4.28187 24.0272 4.28187 23.6271V5.56791C4.28187 5.24781 4.46792 5.00773 4.8666 5.00773H8.66735C9.01288 5.00773 9.22551 5.24781 9.25208 5.56791L9.3584 8.12874V8.15542C10.6608 6.15477 12.7073 4.58093 15.4449 4.58093C17.9965 4.58093 20.1493 5.83467 21.3454 8.15542C22.7275 6.07474 25.0398 4.58093 28.0964 4.58093C32.2692 4.58093 35.3258 7.59524 35.3258 12.7169Z" fill="#00E082"></path><path d="M161 22.8028C161 26.5832 157.247 28.7951 153.689 28.7951C150.483 28.7951 147.786 27.1864 146.457 25.5375C146.222 25.256 146.261 24.9745 146.457 24.7332L147.942 22.5213C148.216 22.1996 148.489 22.3202 148.802 22.5615C150.405 23.5669 152.047 24.4115 153.533 24.4115C154.823 24.4115 156.035 23.9691 156.035 22.7224C156.035 19.6257 146.808 20.792 146.808 14.1965C146.808 10.4563 150.014 8.24441 153.416 8.24441C155.879 8.24441 158.342 9.24982 159.944 11.2204C160.179 11.5422 160.062 11.8237 159.905 12.065L158.42 14.0356C158.185 14.3573 157.911 14.2769 157.56 13.9552C156.113 13.0302 155.214 12.5074 153.846 12.5074C152.594 12.5074 151.695 13.1508 151.695 14.1562C151.695 17.3736 161 15.6443 161 22.8028ZM140.67 0.603249H144.697C145.049 0.603249 145.245 0.804332 145.245 1.2065V27.669C145.245 28.0712 145.049 28.2723 144.697 28.2723H140.67C140.358 28.2723 140.123 28.0712 140.123 27.669V1.2065C140.123 0.804332 140.358 0.603249 140.67 0.603249ZM133.829 18.5399C133.829 15.403 131.6 13.1106 128.863 13.1106C126.127 13.1106 123.898 15.403 123.898 18.5399C123.898 21.6768 126.127 23.9289 128.863 23.9289C131.6 23.9289 133.829 21.6768 133.829 18.5399ZM118.972 18.5399C118.972 12.7889 123.39 8.24441 128.863 8.24441C134.376 8.24441 138.755 12.7889 138.755 18.5399C138.755 24.2908 134.376 28.7951 128.863 28.7951C123.39 28.7951 118.972 24.2908 118.972 18.5399ZM113.147 18.5399C113.147 15.403 110.958 13.1106 108.221 13.1106C105.445 13.1106 103.334 15.403 103.334 18.5399C103.334 21.6768 105.445 23.9289 108.221 23.9289C110.958 23.9289 113.147 21.6768 113.147 18.5399ZM98.3689 18.5399C98.3689 12.7889 102.709 8.24441 108.221 8.24441C113.694 8.24441 118.073 12.7889 118.073 18.5399C118.073 24.2908 113.694 28.7951 108.221 28.7951C102.709 28.7951 98.3689 24.2908 98.3689 18.5399ZM96.9615 16.529V27.669C96.9615 28.0712 96.766 28.2723 96.3751 28.2723H92.4264C92.1137 28.2723 91.8791 28.0712 91.8791 27.669V17.4942C91.8791 14.7595 90.3544 13.1106 87.8913 13.1106C85.0374 13.1106 83.669 16.0464 83.669 16.9714V27.669C83.669 28.0712 83.4344 28.2723 83.1217 28.2723H79.1339C78.7821 28.2723 78.5866 28.0712 78.5866 27.669V1.2065C78.5866 0.804332 78.7821 0.603249 79.1339 0.603249H83.1217C83.4344 0.603249 83.669 0.804332 83.669 1.2065V11.9041C85.1156 9.65199 87.3831 8.24441 89.7288 8.24441C94.2248 8.24441 96.9615 11.3813 96.9615 16.529ZM74.0906 22.1594C74.4425 21.8778 74.7161 21.8778 74.9898 22.1594L77.3355 24.4919C77.6092 24.7332 77.6092 25.0549 77.3746 25.3767C75.6544 27.3875 72.9568 28.7951 69.9465 28.7951C64.4731 28.7951 60.2117 24.2908 60.2117 18.5399C60.2117 12.7889 64.4731 8.24441 69.9465 8.24441C72.8786 8.24441 75.498 9.61177 77.2573 11.7432C77.4919 12.0248 77.4528 12.3465 77.1792 12.5878L74.8725 14.9204C74.5988 15.2019 74.3252 15.1617 74.0515 14.8801C72.9177 13.9149 71.784 13.1106 70.0638 13.1106C67.1707 13.1106 65.1377 15.4432 65.1377 18.5399C65.1377 21.5963 67.1707 23.9289 70.0638 23.9289C71.8622 23.9289 73.035 23.205 74.0906 22.1594ZM59.3907 20.5105C59.3907 25.8191 54.6992 28.7951 49.9686 28.7951C45.9809 28.7951 42.5796 26.6234 40.8203 24.4517C40.6248 24.1702 40.6248 23.8887 40.8594 23.5669L43.166 20.9931C43.4006 20.6713 43.7134 20.6713 43.987 20.9529C45.9027 22.642 47.7402 23.6876 50.0859 23.6876C52.3926 23.6876 54.2301 22.4007 54.2301 20.3898C54.2301 15.4432 41.3285 16.9714 41.3285 7.88246C41.3285 2.93581 45.3163 0 49.7732 0C53.1354 0 55.9112 1.4478 58.1005 3.69993C58.3742 3.98144 58.3742 4.18253 58.1005 4.54448L55.9503 7.19877C55.7157 7.56072 55.442 7.60094 55.1293 7.35964C53.2527 5.83141 51.8843 5.10751 49.9295 5.10751C47.7402 5.10751 46.4891 6.31401 46.4891 7.96289C46.4891 12.8693 59.3907 10.8183 59.3907 20.5105Z" fill="white"></path></svg> 